<?xml version="1.0" encoding="UTF-8" standalone="no"?>
<svg
   viewBox="0 -0.5 25 25"
   shape-rendering="crispEdges"
   version="1.1"
   id="svg7"
   sodipodi:docname="Fabric.svg"
   width="25"
   height="25"
   inkscape:version="1.4.4 (dcaf3e7d9e, 2026-05-05)"
   xmlns:inkscape="http://www.inkscape.org/namespaces/inkscape"
   xmlns:sodipodi="http://sodipodi.sourceforge.net/DTD/sodipodi-0.dtd"
   xmlns="http://www.w3.org/2000/svg"
   xmlns:svg="http://www.w3.org/2000/svg">
  <defs
     id="defs7" />
  <sodipodi:namedview
     id="namedview7"
     pagecolor="#ffffff"
     bordercolor="#000000"
     borderopacity="0.25"
     inkscape:showpageshadow="2"
     inkscape:pageopacity="0.0"
     inkscape:pagecheckerboard="0"
     inkscape:deskcolor="#d1d1d1"
     inkscape:zoom="11.111678"
     inkscape:cx="15.029233"
     inkscape:cy="18.539054"
     inkscape:window-width="1920"
     inkscape:window-height="1126"
     inkscape:window-x="0"
     inkscape:window-y="0"
     inkscape:window-maximized="1"
     inkscape:current-layer="svg7" />
  <g
     id="g7"
     transform="matrix(0.44642857,0,0,0.44642857,0.89285718,-0.27678568)">
    <path
       stroke="#38342a"
       d="m 28,0 h 4 m -4,1 h 4 m -4,1 h 4 m -4,1 h 4 m -8,1 h 4 m 4,0 h 4 M 24,5 h 4 m 4,0 h 4 M 24,6 h 4 m 4,0 h 4 M 24,7 h 4 m 4,0 h 4 M 24,8 h 4 m 8,0 h 4 M 24,9 h 4 m 8,0 h 4 m -16,1 h 4 m 8,0 h 4 m -16,1 h 4 m 8,0 h 4 m -20,1 h 4 m 4,0 h 4 m 8,0 h 4 m -24,1 h 4 m 4,0 h 4 m 8,0 h 4 m -24,1 h 4 m 4,0 h 4 m 8,0 h 4 m -24,1 h 4 m 4,0 h 4 m 8,0 h 4 m -28,1 h 4 m 12,0 h 4 m 8,0 h 4 m -32,1 h 4 m 12,0 h 4 m 8,0 h 4 m -32,1 h 4 m 12,0 h 4 m 8,0 h 4 m -32,1 h 4 m 12,0 h 4 m 8,0 h 4 m -36,1 h 4 m 20,0 h 4 m 4,0 h 8 m -40,1 h 4 m 20,0 h 4 m 4,0 h 8 m -40,1 h 4 m 20,0 h 4 m 4,0 h 8 m -40,1 h 4 m 20,0 h 4 m 4,0 h 8 M 8,24 h 4 m 28,0 h 4 m 4,0 h 4 M 8,25 h 4 m 28,0 h 4 m 4,0 h 4 M 8,26 h 4 m 28,0 h 4 m 4,0 h 4 M 8,27 h 4 m 28,0 h 4 m 4,0 h 4 M 4,28 h 4 m 32,0 h 8 M 4,29 h 4 m 32,0 h 8 M 4,30 h 4 m 32,0 h 8 M 4,31 h 4 m 32,0 h 8 M 0,32 h 4 m 32,0 h 4 M 0,33 h 4 m 32,0 h 4 M 0,34 h 4 m 32,0 h 4 M 0,35 h 4 m 32,0 h 4 M 0,36 h 4 m 28,0 h 4 M 0,37 h 4 m 28,0 h 4 M 0,38 h 4 m 28,0 h 4 M 0,39 h 4 m 28,0 h 4 M 4,40 h 4 m 20,0 h 4 M 4,41 h 4 m 20,0 h 4 M 4,42 h 4 m 20,0 h 4 M 4,43 h 4 m 20,0 h 4 M 8,44 h 4 m 12,0 h 4 M 8,45 h 4 m 12,0 h 4 M 8,46 h 4 m 12,0 h 4 M 8,47 h 4 m 12,0 h 4 m -16,1 h 4 m 4,0 h 8 m -16,1 h 4 m 4,0 h 8 m -16,1 h 4 m 4,0 h 8 m -16,1 h 4 m 4,0 h 8 m -12,1 h 8 m -8,1 h 8 m -8,1 h 8 m -8,1 h 8"
       id="path1" />
    <path
       stroke="#dbd0b4"
       d="m 28,4 h 4 m -4,1 h 4 m -4,1 h 4 m -4,1 h 4 m 0,1 h 4 m -4,1 h 4 m -4,1 h 4 m -4,1 h 4 m -12,1 h 4 m 8,0 h 4 m -16,1 h 4 m 8,0 h 4 m -16,1 h 4 m 8,0 h 4 m -16,1 h 4 m 8,0 h 4 m -16,1 h 8 m 8,0 h 4 m -20,1 h 8 m 8,0 h 4 m -20,1 h 8 m 8,0 h 4 m -20,1 h 8 m 8,0 h 4 m -28,1 h 8 m 4,0 h 8 m -20,1 h 8 m 4,0 h 8 m -20,1 h 8 m 4,0 h 8 m -20,1 h 8 m 4,0 h 8 M 12,24 H 28 M 12,25 H 28 M 12,26 H 28 M 12,27 H 28 M 8,28 h 8 m 4,0 H 32 M 8,29 h 8 m 4,0 H 32 M 8,30 h 8 m 4,0 H 32 M 8,31 h 8 m 4,0 H 32 M 8,32 h 12 m 8,0 h 4 M 8,33 h 12 m 8,0 h 4 M 8,34 h 12 m 8,0 h 4 M 8,35 h 12 m 8,0 h 4 m -20,1 h 12 m -12,1 h 12 m -12,1 h 12 m -12,1 h 12 m -8,1 h 8 m -8,1 h 8 m -8,1 h 8 m -8,1 h 8"
       id="path2" />
    <path
       stroke="#c6bca5"
       d="m 28,8 h 4 m -4,1 h 4 m -4,1 h 4 m -4,1 h 4 m -12,5 h 4 m -4,1 h 4 m -4,1 h 4 m -4,1 h 4 m 0,1 h 4 m -4,1 h 4 m -4,1 h 4 m -4,1 h 4 m 0,1 h 8 m -8,1 h 8 m -8,1 h 8 m -8,1 h 8 m -20,1 h 4 m -4,1 h 4 m -4,1 h 4 m -4,1 h 4 m 0,1 h 8 m -8,1 h 8 m -8,1 h 8 m -8,1 h 8"
       id="path3" />
    <path
       stroke="#bcb29c"
       d="m 32,12 h 4 m -4,1 h 4 m -4,1 h 4 m -4,1 h 4 m 0,1 h 4 m -4,1 h 4 m -4,1 h 4 m -4,1 h 4 m 0,1 h 4 m -4,1 h 4 m -4,1 h 4 m -4,1 h 4 m -8,1 h 4 m -4,1 h 4 m -4,1 h 4 m -4,1 h 4 m -8,1 h 8 m -8,1 h 8 m -8,1 h 8 m -8,1 h 8 m -8,1 h 4 m -4,1 h 4 m -4,1 h 4 m -4,1 h 4 m -12,1 h 8 m -8,1 h 8 m -8,1 h 8 m -8,1 h 8 m -8,1 h 4 m -4,1 h 4 m -4,1 h 4 m -4,1 h 4 m -8,1 h 4 m -4,1 h 4 m -4,1 h 4 m -4,1 h 4"
       id="path4" />
    <path
       stroke="#807a6d"
       d="m 44,24 h 4 m -4,1 h 4 m -4,1 h 4 m -4,1 h 4"
       id="path5" />
    <path
       stroke="#aea694"
       d="m 4,32 h 4 m -4,1 h 4 m -4,1 h 4 m -4,1 h 4 m 0,1 h 4 m -4,1 h 4 m -4,1 h 4 m -4,1 h 4 m 0,1 h 4 m -4,1 h 4 m -4,1 h 4 m -4,1 h 4 m 0,1 h 4 m -4,1 h 4 m -4,1 h 4 m -4,1 h 4"
       id="path6" />
    <path
       stroke="#9a927e"
       d="m 4,36 h 4 m -4,1 h 4 m -4,1 h 4 m -4,1 h 4 m 0,1 h 4 m -4,1 h 4 m -4,1 h 4 m -4,1 h 4 m 0,1 h 4 m -4,1 h 4 m -4,1 h 4 m -4,1 h 4 m 0,1 h 4 m -4,1 h 4 m -4,1 h 4 m -4,1 h 4"
       id="path7" />
  </g>
</svg>
