<?xml version="1.0" encoding="UTF-8" standalone="no"?>
<!-- Generator: Adobe Illustrator 19.2.1, SVG Export Plug-In . SVG Version: 6.00 Build 0)  -->

<svg
   version="1.1"
   id="Ebene_1"
   x="0px"
   y="0px"
   viewBox="0 0 25 25"
   xml:space="preserve"
   sodipodi:docname="forge.svg"
   inkscape:version="1.4.4 (dcaf3e7d9e, 2026-05-05)"
   width="25"
   height="25"
   xmlns:inkscape="http://www.inkscape.org/namespaces/inkscape"
   xmlns:sodipodi="http://sodipodi.sourceforge.net/DTD/sodipodi-0.dtd"
   xmlns="http://www.w3.org/2000/svg"
   xmlns:svg="http://www.w3.org/2000/svg"><defs
   id="defs4" /><sodipodi:namedview
   id="namedview4"
   pagecolor="#bfbfbf"
   bordercolor="#000000"
   borderopacity="0.3254902"
   inkscape:showpageshadow="2"
   inkscape:pageopacity="0.0"
   inkscape:pagecheckerboard="0"
   inkscape:deskcolor="#868686"
   inkscape:zoom="5.7626584"
   inkscape:cx="26.723777"
   inkscape:cy="43.556286"
   inkscape:window-width="1920"
   inkscape:window-height="1126"
   inkscape:window-x="0"
   inkscape:window-y="0"
   inkscape:window-maximized="1"
   inkscape:current-layer="Ebene_1" />
<style
   type="text/css"
   id="style1">
	.st0{fill:#DFA86A;}
	.st1{fill:#FAF4F3;}
</style>
<g
   id="g4"
   transform="matrix(0.28409091,0,0,0.28409091,-3.409091,3.0397727)">
	
	<path
   class="st1"
   d="M 91.6,16.7 53.8,14.8 H 100 V 11.1 H 47.8 v 7.8 6.2 c 0,0.1 -1.5,-9.1 -1.9,-11.7 h -4.1 v 6.8 6.2 c 0,0.1 -1.8,-10.9 -1.9,-12.3 -10.4,0 -27.9,0 -27.9,0 1.9,1.6 12.4,10.6 19.9,14.3 3.7,1.8 8.3,1.9 12.4,2 2.1,0.1 4.2,0.2 5.8,1.8 2.3,2.2 2.8,5.7 0.8,8.3 -1.9,2.6 -7.3,3.2 -7.3,3.2 L 39,49.1 v 6.4 h 10.3 l 0.3,-6.3 8.9,-6.3 c -0.9,0.8 -3.1,2.8 -6.2,7.7 -0.7,1.1 -1.3,2.3 -1.7,3.5 2.2,-1.9 6.8,-3.2 12.2,-3.2 5.3,0 9.9,1.3 12.1,3.2 -0.4,-1.2 -1,-2.4 -1.7,-3.5 C 70,45.7 67.9,43.7 67,42.9 l 8.9,6.3 0.3,6.3 h 9.6 v -6.4 l -4.5,-5.5 c 0,0 -6.7,-0.4 -8.4,-3.2 -5.2,-7.8 1.9,-20 18.7,-23.7 z"
   id="path4" />
</g>
</svg>
