<svg width="184" height="182" viewBox="0 0 184 182" fill="none" xmlns="http://www.w3.org/2000/svg">
<path d="M90.1839 48.8855C92.0768 48.5847 92.6655 46.1624 91.1192 45.0354L63.6488 25.0129C63.2433 24.7171 62.746 24.5716 62.2439 24.6015L29.3667 26.5573C28.2564 26.6234 27.3784 27.5175 27.3385 28.6227L26.3344 56.4443L26.3335 56.4761C26.3045 57.8116 27.5004 58.8526 28.8323 58.6407L90.1839 48.8855Z" fill="#B45189" stroke="#B45189" stroke-width="0.405501"/>
<path d="M61.4546 62.6137C62.604 61.0692 61.2785 58.9234 59.3651 59.2309L25.8642 64.6166C25.3839 64.6937 24.9439 64.9289 24.6153 65.284L2.05367 89.6681C1.30516 90.4772 1.29555 91.7149 2.03141 92.5352L20.5653 113.195C21.4792 114.213 23.1095 114.14 23.9258 113.043L61.4546 62.6137Z" fill="#956FBF" stroke="#956FBF" stroke-width="0.405501"/>
<path d="M50.6985 91.8589C50.421 89.9504 47.9498 89.3458 46.8135 90.9083L26.6464 118.631C26.3581 119.028 26.2146 119.51 26.2396 119.998L27.9307 153.068C27.9868 154.165 28.8662 155.043 29.9688 155.102L57.5017 156.596C58.8622 156.669 59.9504 155.487 59.7553 154.146L50.6985 91.8589Z" fill="#1E7AC9" stroke="#1E7AC9" stroke-width="0.405501"/>
<path d="M63.6984 122.051C62.1379 120.912 59.9682 122.222 60.2778 124.116L65.685 157.158C65.7645 157.643 66.0107 158.087 66.3819 158.414L90.8584 179.987C91.6762 180.708 92.9095 180.71 93.7302 179.993L114.176 162.115C115.208 161.212 115.136 159.597 114.028 158.788L63.6984 122.051Z" fill="#137D6B" stroke="#137D6B" stroke-width="0.405501"/>
<path d="M94.3454 133.218C92.4618 133.523 91.8746 135.931 93.4083 137.06L120.018 156.66L120.057 156.687C120.457 156.969 120.941 157.107 121.431 157.078L154.707 155.115C155.795 155.051 156.664 154.189 156.733 153.108L158.486 125.475C158.573 124.1 157.352 123 155.984 123.222L94.3454 133.218Z" fill="#A4C91E" stroke="#A4C91E" stroke-width="0.405501"/>
<path d="M122.549 119.539C121.396 121.081 122.716 123.23 124.63 122.927L158.747 117.523C159.234 117.446 159.68 117.206 160.011 116.844L181.956 92.8028C182.696 91.9929 182.701 90.7626 181.968 89.9464L163.412 69.267C162.5 68.25 160.873 68.3216 160.055 69.4142L122.549 119.539Z" fill="#C9BB1E" stroke="#C9BB1E" stroke-width="0.405501"/>
<path d="M134.03 89.9951C134.311 91.901 136.779 92.502 137.915 90.9416L158.098 63.1962C158.386 62.8001 158.529 62.318 158.504 61.8296L156.815 28.7896C156.758 27.6855 155.867 26.8046 154.757 26.7546L127.108 25.5091L127.108 25.5091C125.753 25.4481 124.678 26.6303 124.875 27.9648L134.03 89.9951Z" fill="#CF8D29" stroke="#CF8D29" stroke-width="0.405501"/>
<path d="M120.455 60.1109C122.176 61.3664 124.568 59.9227 124.229 57.8341L118.906 25.0899C118.82 24.5581 118.552 24.0713 118.148 23.7106L93.9014 2.07815C92.9907 1.26561 91.6059 1.26783 90.6979 2.0833L70.5388 20.1872C69.4222 21.1899 69.5132 22.953 70.7268 23.8382L120.455 60.1109Z" fill="#9C3434" stroke="#9C3434" stroke-width="0.405501"/>
</svg>
