<svg width="601" height="613" viewBox="0 0 601 613" fill="none" xmlns="http://www.w3.org/2000/svg">
<path d="M300.5 35.5L256 75L250.5 73.125C250.5 73.125 248.156 84.2587 247.5 91.5C246.672 100.64 246.831 105.847 247.5 115C248.513 128.865 254 150 254 150L264.973 174.5L279 142.5L300.5 164L322.5 142L338.5 178.5L345.5 161C345.5 161 349.994 133.642 352 116C353.152 105.865 354.41 100.2 354.5 90C354.564 82.6956 353.5 71.3218 353.5 71.3218L343.5 75L300.5 35.5Z" fill="#E23A3A"/>
<path d="M300.5 0L251.5 45.5L245.5 43.2576C245.5 43.2576 243.687 51.5887 243 57C242.347 62.139 242 70.2273 242 70.2273L250.5 73.125L256 75L300.5 35.5L343.5 75L353.5 71.3218L361.5 68.3793C361.5 68.3793 362.042 59.3139 362 53.5C361.965 48.7152 361.5 41.2576 361.5 41.2576L349.5 45.5L300.5 0Z" fill="#E23A3A" fill-opacity="0.8"/>
<path d="M413 115.5L387 59L361.5 68.3793L353.5 71.3218C353.5 71.3218 354.564 82.6956 354.5 90C354.41 100.2 353.152 105.865 352 116C349.994 133.642 345.5 161 345.5 161L338.5 178.5L379.5 159.791C379.5 159.791 390.54 148.397 398 141.5C404.096 135.864 407.521 132.693 414 127.5C420.241 122.498 430.5 115.366 430.5 115.366L417 115.469L413 115.5Z" fill="#F4691D"/>
<path d="M428.5 90.5L399 28L361.5 41.2576C361.5 41.2576 361.965 48.7152 362 53.5C362.042 59.3139 361.5 68.3793 361.5 68.3793L387 59L413 115.5L417 115.469L448.5 90.5H428.5Z" fill="#F4691D" fill-opacity="0.8"/>
<path d="M390 155L391.5 211.5L412.5 210.145C412.5 210.145 425.439 199.329 434.5 193.5C443.464 187.733 448.62 184.501 458.5 180.5C467.611 176.81 482.679 173.5 482.679 173.5L481.977 163.676L478.5 115L430.5 115.366C430.5 115.366 420.241 122.498 414 127.5C407.521 132.693 404.096 135.864 398 141.5C390.54 148.397 379.5 159.791 379.5 159.791L390 155Z" fill="#EE7A49"/>
<path d="M507.032 155.918L502 90.5H448.5L417 115.469L430.5 115.366L478.5 115L481.977 163.676C481.967 163.535 498.687 158.418 507.032 155.918Z" fill="#EE7A49" fill-opacity="0.8"/>
<path d="M536.5 199L483 178L482.679 173.5C482.679 173.5 467.611 176.81 458.5 180.5C448.62 184.501 443.464 187.733 434.5 193.5C425.439 199.329 412.5 210.145 412.5 210.145L438 208.5L424.122 248.5C424.122 248.5 442.5 245 457.5 243C472.5 241 480.948 239.071 496 240C506.547 240.651 522.717 244.287 522.717 244.287L526.5 231.857L536.5 199Z" fill="#F2BD2B"/>
<path d="M507.5 162L507.032 155.918L481.977 163.676L482.679 173.5L483 178L536.5 199L526.5 231.857L552.5 235.375L568 185L507.5 162Z" fill="#F2BD2B" fill-opacity="0.8"/>
<path d="M566 306L519 256.5L522.717 244.287C522.717 244.287 506.547 240.651 496 240C480.948 239.071 472.5 241 457.5 243C442.5 245 424.122 248.5 424.122 248.5L421 257.5L472.5 274L437.5 308L452 321.709C452 321.709 469.202 323.958 480 326.5C491.123 329.118 497.342 330.877 508 335C517.12 338.528 530.732 345.5 530.732 345.5L536.536 339L566 306Z" fill="#F4B452"/>
<path d="M600.5 306L548 250L552.5 235.375L526.5 231.857L522.717 244.287L519 256.5L566 306L536.536 339L561.628 349.5L600.5 306Z" fill="#F4B452" fill-opacity="0.8"/>
<path d="M547.5 399L528.5 348L530.732 345.5C530.732 345.5 517.12 338.528 508 335C497.342 330.877 491.123 329.118 480 326.5C469.202 323.958 452 321.709 452 321.709L465 334L427.5 349L446.986 389.5C446.986 389.5 457.956 393.118 464.5 396.5C472.005 400.379 475.747 403.424 482.5 408.5C489.026 413.405 498.5 421.955 498.5 421.955L504 419.378L547.5 399Z" fill="#8DD567"/>
<path d="M580.5 411L558.5 353L561.628 349.5L536.536 339L530.732 345.5L528.5 348L547.5 399L504 419.378L525.61 436.5L580.5 411Z" fill="#8DD567" fill-opacity="0.8"/>
<path d="M491 490.5L492 425L498.5 421.955C498.5 421.955 489.026 413.405 482.5 408.5C475.747 403.424 472.005 400.379 464.5 396.5C457.956 393.118 446.986 389.5 446.986 389.5L453 402H394L398.33 437C398.33 437 406.071 444.323 410.5 449.5C418.739 459.129 422.181 465.515 428.5 476.5C432.505 483.462 438 494.74 438 494.74L442.5 494.38L491 490.5Z" fill="#1EB770"/>
<path d="M517 514.733V440.5L525.61 436.5L504 419.378L498.5 421.955L492 425L491 490.5L442.5 494.38L457.5 519.116L517 514.733Z" fill="#1EB770" fill-opacity="0.8"/>
<path d="M407.5 548.5L428.5 495.5L438 494.74C438 494.74 432.505 483.462 428.5 476.5C422.181 465.515 418.739 459.129 410.5 449.5C406.071 444.323 398.33 437 398.33 437L400 450.5L349.5 431L337.1 473L336.805 474C336.805 474 342.747 483.259 346 489.5C350.894 498.89 353.152 504.454 356.5 514.5C359.058 522.175 361.9 534.5 361.9 534.5L362.5 534.684L407.5 548.5Z" fill="#0FAA97"/>
<path d="M422.5 580L445.5 520L457.5 519.116L442.5 494.38L438 494.74L428.5 495.5L407.5 548.5L362.5 534.684L370.5 563.725L422.5 580Z" fill="#0FAA97" fill-opacity="0.8"/>
<path d="M299.5 578L350.5 531L361.9 534.5C361.9 534.5 359.058 522.175 356.5 514.5C353.152 504.454 350.894 498.89 346 489.5C342.747 483.259 336.805 474 336.805 474L334 483.5L300 447L274.5 475.638C274.5 475.638 274.133 492.484 272 503C270.134 512.201 268.555 517.31 265 526C262.703 531.615 258.266 540 258.266 540L264.234 545.5L299.5 578Z" fill="#2FDBB4"/>
<path d="M300.5 613L357 559.5L370.5 563.725L362.5 534.684L361.9 534.5L350.5 531L299.5 578L264.234 545.5L254.5 569.776L300.5 613Z" fill="#2FDBB4" fill-opacity="0.8"/>
<path d="M192 549L248.5 531L258.266 540C258.266 540 262.703 531.615 265 526C268.555 517.31 270.134 512.201 272 503C274.133 492.484 274.5 475.638 274.5 475.638L267.5 483.5L251 430.5L223.5 441.385C223.5 441.385 217.887 454.988 213 463C206.632 473.44 201.725 478.451 193.5 487.5C186.575 495.118 174.72 506 174.72 506L177.935 514L192 549Z" fill="#8BF1DC"/>
<path d="M179 579.5L242.5 558.5L254.5 569.776L264.234 545.5L258.266 540L248.5 531L192 549L177.935 514L159.959 531.5L179 579.5Z" fill="#8BF1DC" fill-opacity="0.8"/>
<path d="M107.5 491L170.5 495.5L174.72 506C174.72 506 186.575 495.118 193.5 487.5C201.725 478.451 206.632 473.44 213 463C217.887 454.988 223.5 441.385 223.5 441.385L203 449.5L204.5 402L155 401.55L154.5 401.545C154.5 401.545 135.336 415.552 121.5 421.5C116.335 423.72 108 426.5 108 426.5L107.957 432L107.5 491Z" fill="#4C63AF"/>
<path d="M84 514.5L155 519L159.959 531.5L177.935 514L174.72 506L170.5 495.5L107.5 491L107.957 432C100.305 435.333 84.8 442 84 442V514.5Z" fill="#4C63AF" fill-opacity="0.8"/>
<path d="M51 399.5L108 426.5C108 426.5 116.335 423.72 121.5 421.5C135.336 415.552 154.5 401.545 154.5 401.545L149.5 401.5L173.5 348L158 342.618L157.66 342.5C157.66 342.5 141.913 347.457 131.5 349C118.939 350.862 111.688 350.505 99 350C87.6234 349.547 70 347 70 347L67.4667 354L51 399.5Z" fill="#4C97E0"/>
<path d="M20.5 411.5L84 440V442C84.8 442 100.305 435.333 107.957 432L108 426.5L51 399.5L67.4667 354L41.5532 352L42 352.5L20.5 411.5Z" fill="#4C97E0" fill-opacity="0.8"/>
<path d="M33 306.5L70 347C70 347 87.6234 349.547 99 350C111.688 350.505 118.939 350.862 131.5 349C141.913 347.457 157.66 342.5 157.66 342.5L137.5 335.5L165 308L129.574 275L128.5 274C128.5 274 119.558 272.596 114 271C105.67 268.608 101.302 266.275 93.5 262.5C87.9167 259.799 79.5 255 79.5 255L75.202 259.76L33 306.5Z" fill="#8BCDF7"/>
<path d="M52.5 248L0 305.5L41.5532 352L67.4667 354L70 347L33 306.5L75.202 259.76L52.4305 247.771L52.5 248Z" fill="#8BCDF7" fill-opacity="0.8"/>
<path d="M62.5 199.5L79.5 255C79.5 255 87.9167 259.799 93.5 262.5C101.302 266.275 105.67 268.608 114 271C119.558 272.596 128.5 274 128.5 274L182 257.5L163.694 211.5C163.694 211.5 150.646 202.583 143.5 195.5C137.197 189.252 134.114 185.254 129 178C123.878 170.735 117.373 158.431 117.373 158.431L116.36 172.5L116 177.5L62.5 199.5Z" fill="#A481EC"/>
<path d="M94 161.5L33.5 185.5L52.4305 247.771L75.202 259.76L79.5 255L62.5 199.5L116 177.5L116.36 172.5L95.4261 139L94 161.5Z" fill="#A481EC" fill-opacity="0.8"/>
<path d="M163.694 211.5L163.5 211.013L162.5 208.5L210 211.5L210.661 174.5C210.661 174.5 202.015 161.248 198 152C194.877 144.807 193.411 140.606 191.5 133C189.428 124.757 188.123 111.5 188.123 111.5L186.5 115H180H120.5L117.373 158.431C117.373 158.431 123.878 170.735 129 178C134.114 185.254 137.197 189.252 143.5 195.5C150.646 202.583 163.694 211.5 163.694 211.5Z" fill="#E4A8E6"/>
<path d="M173.5 90L98.5 90.5L95.4261 139L116.36 172.5L117.373 158.431L120.5 115H180L175 86.6842L173.5 90Z" fill="#E4A8E6" fill-opacity="0.8"/>
<path d="M211 155.5L263 179L264.973 174.5L254 150C254 150 248.513 128.865 247.5 115C246.831 105.847 246.672 100.64 247.5 91.5C248.156 84.2587 250.5 73.125 250.5 73.125L242 70.2273L212 60L188.123 111.5C188.123 111.5 189.428 124.757 191.5 133C193.411 140.606 194.877 144.807 198 152C202.015 161.248 210.661 174.5 210.661 174.5L211 155.5Z" fill="#E67D95"/>
<path d="M186.5 115L188.123 111.5L212 60L242 70.2273C242 70.2273 242.347 62.139 243 57C243.687 51.5887 245.5 43.2576 245.5 43.2576L202 27L175 86.6842L180 115H186.5Z" fill="#E67D95" fill-opacity="0.8"/>
<path d="M178 220.5L218.5 222.5L219.55 187.839L210.661 174.5L210 211.5L162.5 208.5L163.5 211.013L178 220.5Z" fill="#D69FD9"/>
<path d="M220 173L265.5 194L270.357 183.315L264.973 174.5L263 179L211 155.5L210.661 174.5L219.55 187.839L220 173Z" fill="#D8768C"/>
<path d="M280.5 161L298.086 178.586C298.867 179.367 300.133 179.367 300.914 178.586L318.5 161L332.5 193.5C332.5 193.5 335.322 189.42 336.5 186.5C337.705 183.514 338.5 178.5 338.5 178.5L322.5 142L300.5 164L279 142.5L264.973 174.5L270.357 183.315L280.5 161Z" fill="#D43939"/>
<path d="M379.5 159.791L338.5 178.5C338.5 178.5 337.705 183.514 336.5 186.5C335.322 189.42 332.5 193.5 332.5 193.5L368.5 177.415L379.5 159.791Z" fill="#E5651F"/>
<path d="M379.5 172.5L380.458 219.919C380.481 221.055 381.444 221.943 382.578 221.875L400 220.825L412.5 210.145L391.5 211.5L390 155L379.5 159.791L368.5 177.415L379.5 172.5Z" fill="#E17446"/>
<path d="M438 208.5L412.5 210.145L400 220.825L422 219.5L409.438 253L424.122 248.5L438 208.5Z" fill="#E3B22B"/>
<path d="M406.238 261.531C405.837 262.602 406.414 263.791 407.504 264.139L451 278L421.483 307.041C420.674 307.837 420.689 309.147 421.517 309.924L432.5 320.235L452 321.709L437.5 308L472.5 274L421 257.5L424.122 248.5L409.438 253L406.238 261.531Z" fill="#E4A94E"/>
<path d="M444.5 331.5L413.928 344.67C412.878 345.122 412.42 346.359 412.922 347.385L432 386.389L446.986 389.5L427.5 349L465 334L452 321.709L432.5 320.235L444.5 331.5Z" fill="#86C962"/>
<path d="M434.5 391.5H383.5L386.533 428.325L398.33 437L394 402H453L446.986 389.5L432 386.389L434.5 391.5Z" fill="#1FAD6B"/>
<path d="M386.533 428.325L387 434L345.959 418.252C344.893 417.843 343.701 418.408 343.343 419.493L329.383 461.84L337.1 473L349.5 431L400 450.5L398.33 437L386.533 428.325Z" fill="#10A08E"/>
<path d="M329 463L301.461 433.561C300.67 432.716 299.33 432.716 298.539 433.561L274.5 459.259V475.638L300 447L334 483.5L336.805 474L337.1 473L329.383 461.84L329 463Z" fill="#2ECEA9"/>
<path d="M271 463L256.167 419.459C255.803 418.388 254.623 417.833 253.565 418.234L228.5 427.741L223.5 441.385L251 430.5L267.5 483.5L274.5 475.638V459.259L271 463Z" fill="#83E2CE"/>
<path d="M212 434L214.849 393.641C214.931 392.484 214.014 391.5 212.854 391.5H168.5L155 401.55L204.5 402L203 449.5L223.5 441.385L228.5 427.741L212 434Z" fill="#485EA5"/>
<path d="M165 391.5L185.146 346.411C185.611 345.37 185.113 344.151 184.052 343.734L170 338.205L158 342.618L173.5 348L149.5 401.5L154.5 401.545L155 401.55L168.5 391.5H165Z" fill="#3D78B0"/>
<path d="M155.5 332.5L176.682 309.435C177.415 308.637 177.379 307.399 176.599 306.645L147.5 278.5L129.574 275L165 308L137.5 335.5L157.66 342.5L158 342.618L170 338.205L155.5 332.5Z" fill="#83C0E7"/>
<path d="M147.5 278.5L191.068 264.137C192.129 263.787 192.698 262.634 192.33 261.579L178 220.5L163.5 211.013L163.694 211.5L182 257.5L128.5 274L129.574 275L147.5 278.5Z" fill="#9A7ADD"/>
</svg>
