<?xml version="1.0" encoding="UTF-8" standalone="no"?>
<svg
   height="25"
   width="25"
   version="1.1"
   id="svg11"
   sodipodi:docname="neoforge.svg"
   inkscape:version="1.4.4 (dcaf3e7d9e, 2026-05-05)"
   xmlns:inkscape="http://www.inkscape.org/namespaces/inkscape"
   xmlns:sodipodi="http://sodipodi.sourceforge.net/DTD/sodipodi-0.dtd"
   xmlns="http://www.w3.org/2000/svg"
   xmlns:svg="http://www.w3.org/2000/svg">
  <defs
     id="defs11" />
  <sodipodi:namedview
     id="namedview11"
     pagecolor="#ffffff"
     bordercolor="#000000"
     borderopacity="0.25"
     inkscape:showpageshadow="2"
     inkscape:pageopacity="0.0"
     inkscape:pagecheckerboard="0"
     inkscape:deskcolor="#d1d1d1"
     inkscape:zoom="4.7311829"
     inkscape:cx="-60.449999"
     inkscape:cy="17.331818"
     inkscape:window-width="1920"
     inkscape:window-height="1126"
     inkscape:window-x="0"
     inkscape:window-y="0"
     inkscape:window-maximized="1"
     inkscape:current-layer="svg11" />
  <g
     id="g11"
     transform="matrix(0.2688172,0,0,0.2688172,0.9408604,2e-7)">
    <path
       d="M 15,64 H 29 V 43 H 15 v -7 h 14 v -7 h 7 v 21 h 7 v -7 h 7 V 29 h 7 v 7 h 14 v 7 H 57 v 21 h 14 v 7 H 15 Z m 21,0 H 50 V 57 H 36 Z M 7,43 h 8 v 7 H 7 Z m 72,7 h -8 v -7 h 8 z m -64,7 v 7 H 7 v -7 z m 56,7 v -7 h 8 v 7 z"
       fill="#d7742f"
       id="path1" />
    <path
       d="m 57,86 v 7 H 29 V 86 Z M 7,64 h 8 V 79 H 7 Z M 79,79 H 71 V 64 h 8 z M 36,22 v -8 h 14 v 8 z M 15,36 H 7 V 22 h 8 z M 71,22 h 8 V 36 H 71 Z M 29,79 v 7 H 15 v -7 z m 28,7 v -7 h 14 v 7 z M 29,29 v -7 h 7 v 7 z m 28,-7 v 7 H 50 V 22 Z M 0,57 h 7 v 7 H 0 Z m 86,7 h -7 v -7 h 7 z"
       fill="#a44e37"
       id="path2" />
    <path
       d="m 29,71 v 8 H 15 v -8 z m 42,0 v 8 H 57 V 71 Z M 36,22 h 14 v 7 H 36 Z M 15,36 v -7 h 14 v 7 z m 42,0 v -7 h 14 v 7 z M 36,64 v -7 h 14 v 7 z M 15,43 H 7 v -7 h 8 z m 58,0 h -2 v -7 h 8 v 7 H 76 Z M 7,57 v -7 h 8 v 7 z m 64,0 v -7 h 8 v 7 z M 0,43 h 7 v 7 H 0 Z m 86,7 h -7 v -7 h 7 z"
       fill="#bf6134"
       id="path3" />
    <path
       d="M 29,22 V 7 H 22 V 0 H 36 V 22 Z M 50,0 H 64 V 7 H 57 V 22 H 50 Z M 7,22 v -8 h 8 v 8 z m 72,-8 v 8 H 71 V 14 Z M 15,14 V 7 h 7 v 7 z m 49,0 V 7 h 7 v 7 z M 15,29 v -7 h 7 v 7 z m 56,0 h -7 v -7 h 7 z"
       fill="#66534d"
       id="path4" />
    <path
       d="m 50,79 v 7 H 36 v -7 h 4 z M 22,22 v -8 h 7 v 8 z m 42,0 h -7 v -8 h 7 z M 22,50 v -7 h 7 v 7 z m 35,0 v -7 h 7 v 7 z M 22,64 h -7 v -7 h 7 z m 49,0 h -7 v -7 h 7 z"
       fill="#e7d9d3"
       id="path5" />
    <path
       d="M 36,71 V 86 H 29 V 71 h 1 z m 21,0 V 86 H 50 V 71 Z M 22,57 H 15 V 43 h 7 z M 64,43 h 7 v 14 h -7 z"
       fill="#f9f4f4"
       id="path6" />
    <path
       d="m 43,43 v 7 H 36 V 29 h 14 v 14 z"
       fill="#e68c37"
       id="path7" />
    <path
       d="m 22,22 h -7 v -8 h 7 z m 49,-8 v 8 H 64 V 14 Z M 29,7 v 7 H 22 V 7 Z m 35,0 v 7 H 57 V 7 Z"
       fill="#8d7168"
       id="path8" />
    <path
       d="m 36,79 v -8 h 14 v 8 z M 22,64 v -7 h 7 v 7 z m 42,-7 v 7 h -7 v -7 z"
       fill="#13151a"
       id="path9" />
    <path
       d="m 22,29 v -7 h 7 v 7 z m 35,0 v -7 h 7 v 7 z"
       fill="#c7a3b9"
       id="path10" />
    <path
       d="m 22,50 h 7 v 7 h -7 z m 35,7 v -7 h 7 v 7 z"
       fill="#262a33"
       id="path11" />
  </g>
</svg>
