<svg width="134" height="100" viewBox="0 0 134 100" fill="none" xmlns="http://www.w3.org/2000/svg">
<path d="M0.5 16.5V83.5H17.5V16.5H0.5Z" fill="black"/>
<path d="M17.5 0.5V16.5H50.5V0.5H17.5Z" fill="black"/>
<path d="M66.5 16.5H50.5V83.5H66.5V16.5Z" fill="black"/>
<path d="M50.5 83.5H17.5V99.5H50.5V83.5Z" fill="black"/>
<path d="M83.5 0.5V99.5H100.5V49.5H116.5V33.5H100.5V16.5H133.5V0.5H83.5Z" fill="black"/>
<path d="M17.5 83.5H0.5V16.5H17.5M17.5 83.5V16.5M17.5 83.5H50.5M17.5 83.5V99.5H50.5V83.5M17.5 16.5V0.5H50.5V16.5M17.5 16.5H50.5M50.5 16.5H66.5V83.5H50.5M50.5 16.5V83.5M83.5 0.5V99.5H100.5V49.5H116.5V33.5H100.5V16.5H133.5V0.5H83.5Z" stroke="black"/>
</svg>
