<svg width="200" height="200" viewBox="0 0 200 200" fill="none" xmlns="http://www.w3.org/2000/svg">
<rect width="200" height="200" fill="url(#paint0_linear_0_1)"/>
<g filter="url(#filter0_d_0_1)">
<path d="M33 66V133H50V66H33Z" fill="url(#paint1_linear_0_1)"/>
<path d="M50 50V66H83V50H50Z" fill="url(#paint2_linear_0_1)"/>
<path d="M83 133H50V149H83V133Z" fill="url(#paint3_linear_0_1)"/>
<path d="M116 50V149H133V99H149V83H133V66H166V50H116Z" fill="url(#paint4_linear_0_1)"/>
<path d="M99 66H83V133H99V66Z" fill="url(#paint5_linear_0_1)"/>
<path d="M50 133H33V66H50M50 133V66M50 133H83M50 133V149H83V133M50 66V50H83V66M50 66H83M83 66H99V133H83M83 66V133M116 50V149H133V99H149V83H133V66H166V50H116Z" stroke="#9A4A1A"/>
</g>
<defs>
<filter id="filter0_d_0_1" x="26.5" y="49.5" width="146" height="121" filterUnits="userSpaceOnUse" color-interpolation-filters="sRGB">
<feFlood flood-opacity="0" result="BackgroundImageFix"/>
<feColorMatrix in="SourceAlpha" type="matrix" values="0 0 0 0 0 0 0 0 0 0 0 0 0 0 0 0 0 0 127 0" result="hardAlpha"/>
<feOffset dy="15"/>
<feGaussianBlur stdDeviation="3"/>
<feComposite in2="hardAlpha" operator="out"/>
<feColorMatrix type="matrix" values="0 0 0 0 0 0 0 0 0 0 0 0 0 0 0 0 0 0 0.35 0"/>
<feBlend mode="normal" in2="BackgroundImageFix" result="effect1_dropShadow_0_1"/>
<feBlend mode="normal" in="SourceGraphic" in2="effect1_dropShadow_0_1" result="shape"/>
</filter>
<linearGradient id="paint0_linear_0_1" x1="100" y1="23" x2="100" y2="184.5" gradientUnits="userSpaceOnUse">
<stop stop-color="#962F2F"/>
<stop offset="1" stop-color="#6C171E"/>
</linearGradient>
<linearGradient id="paint1_linear_0_1" x1="99" y1="67.5" x2="99" y2="132" gradientUnits="userSpaceOnUse">
<stop stop-color="#FFC526"/>
<stop offset="1" stop-color="#DC7722"/>
</linearGradient>
<linearGradient id="paint2_linear_0_1" x1="99" y1="67.5" x2="99" y2="132" gradientUnits="userSpaceOnUse">
<stop stop-color="#FFC526"/>
<stop offset="1" stop-color="#DC7722"/>
</linearGradient>
<linearGradient id="paint3_linear_0_1" x1="99" y1="67.5" x2="99" y2="132" gradientUnits="userSpaceOnUse">
<stop stop-color="#FFC526"/>
<stop offset="1" stop-color="#DC7722"/>
</linearGradient>
<linearGradient id="paint4_linear_0_1" x1="99" y1="67.5" x2="99" y2="132" gradientUnits="userSpaceOnUse">
<stop stop-color="#FFC526"/>
<stop offset="1" stop-color="#DC7722"/>
</linearGradient>
<linearGradient id="paint5_linear_0_1" x1="99" y1="67.5" x2="99" y2="132" gradientUnits="userSpaceOnUse">
<stop stop-color="#FFC526"/>
<stop offset="1" stop-color="#DC7722"/>
</linearGradient>
</defs>
</svg>
