<?xml version="1.0" encoding="UTF-8" standalone="no"?>
<svg
   id="Layer_1"
   data-name="Layer 1"
   viewBox="0 0 24.999999 24.999999"
   version="1.1"
   sodipodi:docname="banner.svg"
   width="25"
   height="25"
   inkscape:version="1.4.4 (dcaf3e7d9e, 2026-05-05)"
   xmlns:inkscape="http://www.inkscape.org/namespaces/inkscape"
   xmlns:sodipodi="http://sodipodi.sourceforge.net/DTD/sodipodi-0.dtd"
   xmlns="http://www.w3.org/2000/svg"
   xmlns:svg="http://www.w3.org/2000/svg">
  <sodipodi:namedview
     id="namedview23"
     pagecolor="#ffffff"
     bordercolor="#000000"
     borderopacity="0.25"
     inkscape:showpageshadow="2"
     inkscape:pageopacity="0.0"
     inkscape:pagecheckerboard="0"
     inkscape:deskcolor="#d1d1d1"
     inkscape:zoom="9.8747872"
     inkscape:cx="11.443285"
     inkscape:cy="8.3039765"
     inkscape:window-width="1920"
     inkscape:window-height="1126"
     inkscape:window-x="0"
     inkscape:window-y="0"
     inkscape:window-maximized="1"
     inkscape:current-layer="Layer_1" />
  <defs
     id="defs1">
    <style
       id="style1">.cls-1{fill:#9722ff;}.cls-2{fill:#dc29dd;}.cls-3{fill:#27a2fd;}.cls-4{fill:#34f;}.cls-5{fill:#fff;}</style>
  </defs>
  <g
     id="g23"
     transform="matrix(0.02912738,0,0,0.02912738,-1.6089964,-1.6090117)">
    <path
       class="cls-1"
       d="m 249.16,128.54 a 15.28,15.28 0 0 0 15.26,15.27 h 26 v 58 h -26 a 15.27,15.27 0 0 0 0,30.53 h 26 v 44.5 a 13.52,13.52 0 0 1 -13.52,13.53 h -44.5 v -26 a 15.27,15.27 0 0 0 -30.54,0 v 26 h -58 v -26 a 15.27,15.27 0 1 0 -30.53,0 v 26 H 68.77 A 13.54,13.54 0 0 1 55.24,276.84 V 68.78 A 13.53,13.53 0 0 1 68.77,55.25 h 208.09 a 13.52,13.52 0 0 1 13.52,13.53 v 44.48 h -26 a 15.27,15.27 0 0 0 -15.22,15.28 z"
       id="path1" />
    <path
       class="cls-2"
       d="m 514.84,128.54 a 15.27,15.27 0 0 0 15.26,15.27 h 26 v 58 h -26 a 15.27,15.27 0 0 0 0,30.53 h 26 v 44.5 a 13.53,13.53 0 0 1 -13.52,13.53 H 334.45 a 13.52,13.52 0 0 1 -13.52,-13.53 v -44.5 h 25.94 a 15.27,15.27 0 1 0 0,-30.53 h -25.94 v -58 h 25.94 a 15.28,15.28 0 1 0 0,-30.55 H 320.93 V 68.78 a 13.51,13.51 0 0 1 13.52,-13.53 h 208.09 a 13.52,13.52 0 0 1 13.52,13.53 v 44.48 h -26 a 15.27,15.27 0 0 0 -15.22,15.28 z"
       id="path2" />
    <path
       class="cls-3"
       d="m 821.73,68.78 v 208.08 a 13.52,13.52 0 0 1 -13.52,13.53 h -44.5 v -26 a 15.27,15.27 0 1 0 -30.53,0 v 26 h -58 v -26 a 15.27,15.27 0 1 0 -30.53,0 v 26 h -44.5 a 13.54,13.54 0 0 1 -13.53,-13.53 v -44.5 h 26 a 15.27,15.27 0 1 0 0,-30.53 h -26 v -58 h 26 a 15.28,15.28 0 0 0 0,-30.55 h -26 v -44.5 a 13.53,13.53 0 0 1 13.53,-13.53 h 208.06 a 13.52,13.52 0 0 1 13.52,13.53 z"
       id="path3" />
    <path
       class="cls-2"
       d="m 290.38,334.44 v 208.09 a 13.52,13.52 0 0 1 -13.52,13.53 h -44.5 v -26 a 15.27,15.27 0 0 0 -30.54,0 v 26 h -58 v -26 a 15.27,15.27 0 1 0 -30.53,0 v 26 H 68.77 A 13.53,13.53 0 0 1 55.24,542.53 V 334.44 a 13.54,13.54 0 0 1 13.53,-13.52 h 44.5 v 26 a 15.27,15.27 0 0 0 30.53,0 v -26 h 58 v 26 a 15.27,15.27 0 0 0 30.54,0 v -26 h 44.5 a 13.52,13.52 0 0 1 13.54,13.52 z"
       id="path4" />
    <path
       class="cls-3"
       d="m 514.84,394.21 a 15.25,15.25 0 0 0 15.26,15.26 h 26 v 58 h -26 a 15.27,15.27 0 0 0 0,30.53 h 26 v 44.5 a 13.52,13.52 0 0 1 -13.52,13.53 H 498 v -26 a 15.27,15.27 0 1 0 -30.53,0 v 26 h -58 v -26 a 15.27,15.27 0 1 0 -30.54,0 v 26 H 334.45 A 13.51,13.51 0 0 1 320.93,542.5 V 334.44 a 13.52,13.52 0 0 1 13.52,-13.52 h 208.09 a 13.53,13.53 0 0 1 13.52,13.52 v 44.5 h -26 a 15.26,15.26 0 0 0 -15.22,15.27 z"
       id="path5" />
    <path
       class="cls-4"
       d="m 821.73,334.44 v 208.09 a 13.52,13.52 0 0 1 -13.52,13.53 H 600.12 A 13.53,13.53 0 0 1 586.59,542.53 V 498 h 26 a 15.27,15.27 0 1 0 0,-30.53 h -26 v -58 h 26 a 15.27,15.27 0 1 0 0,-30.53 h -26 v -44.5 a 13.54,13.54 0 0 1 13.53,-13.52 h 44.5 v 26 a 15.27,15.27 0 0 0 30.53,0 v -26 h 58 v 26 a 15.27,15.27 0 0 0 30.53,0 v -26 h 44.5 a 13.52,13.52 0 0 1 13.55,13.52 z"
       id="path6" />
    <path
       class="cls-1"
       d="m 249.16,659.89 a 15.28,15.28 0 0 0 15.26,15.27 h 26 v 58 h -26 a 15.27,15.27 0 0 0 0,30.54 h 26 v 44.5 A 13.52,13.52 0 0 1 276.9,821.73 H 68.77 A 13.54,13.54 0 0 1 55.24,808.2 V 600.13 A 13.53,13.53 0 0 1 68.77,586.6 h 44.5 v 25.95 a 15.27,15.27 0 1 0 30.53,0 V 586.6 h 58 v 25.95 a 15.27,15.27 0 1 0 30.54,0 V 586.6 h 44.5 a 13.52,13.52 0 0 1 13.52,13.53 v 44.48 h -26 a 15.28,15.28 0 0 0 -15.2,15.28 z"
       id="path7" />
    <path
       class="cls-4"
       d="m 556.06,600.13 v 208.08 a 13.53,13.53 0 0 1 -13.52,13.53 H 334.45 a 13.52,13.52 0 0 1 -13.52,-13.53 v -44.5 h 25.94 a 15.27,15.27 0 1 0 0,-30.54 h -25.94 v -58 h 25.94 a 15.28,15.28 0 1 0 0,-30.55 h -25.94 v -44.49 a 13.51,13.51 0 0 1 13.52,-13.53 h 44.49 v 25.95 a 15.27,15.27 0 1 0 30.54,0 V 586.6 h 58 v 25.95 a 15.27,15.27 0 1 0 30.53,0 V 586.6 h 44.5 a 13.52,13.52 0 0 1 13.55,13.53 z"
       id="path8" />
    <rect
       class="cls-1"
       x="635.29999"
       y="635.28998"
       width="235.14"
       height="235.14"
       rx="13.53"
       transform="rotate(-45,752.85741,752.86625)"
       id="rect8" />
  </g>
</svg>
