<?xml version="1.0" encoding="UTF-8" standalone="no"?>
<svg
   fill="currentColor"
   viewBox="0 0 24 24"
   version="1.1"
   id="svg1"
   width="24"
   height="24"
   xmlns="http://www.w3.org/2000/svg"
   xmlns:svg="http://www.w3.org/2000/svg">
  <defs
     id="defs1" />
  <path
     fill-rule="evenodd"
     d="m 11.33867,0.17556897 a 1.3333262,1.3333262 0 0 1 1.32266,0 L 14.99465,1.508895 A 1.3333262,1.3333262 0 1 1 13.67199,3.8235492 L 12.000001,2.8688877 10.328009,3.8235492 A 1.3333262,1.3333262 0 1 1 9.00535,1.508895 Z M 6.1573652,4.6715447 A 1.3333262,1.3333262 0 0 1 5.6613678,6.4902016 l -0.306665,0.175999 0.306665,0.175999 A 1.3333262,1.3333262 0 1 1 4.3387083,9.1568533 L 4.0000435,8.9635213 v 0.369331 a 1.3333262,1.3333262 0 0 1 -2.6666523,0 V 6.6662006 A 1.3333262,1.3333262 0 0 1 2.0267208,5.4955402 L 4.3387083,4.1755474 a 1.3333262,1.3333262 0 0 1 1.8186569,0.4959973 m 11.6852708,0 a 1.3333262,1.3333262 0 0 1 1.818656,-0.4959973 l 2.310654,1.3199928 a 1.3333262,1.3333262 0 0 1 0.694663,1.1706604 v 2.6666517 a 1.3333262,1.3333262 0 1 1 -2.666652,0 v -0.369331 l -0.338665,0.193332 a 1.3333262,1.3333262 0 1 1 -1.32266,-2.3146537 l 0.306666,-0.175999 -0.306666,-0.175999 A 1.3333262,1.3333262 0 0 1 17.842636,4.6715447 M 8.509352,10.004848 a 1.3333262,1.3333262 0 0 1 1.818657,-0.4959967 l 1.671992,0.9546617 1.671989,-0.9546617 a 1.3333262,1.3333262 0 1 1 1.32266,2.3146537 l -1.661324,0.949328 v 1.893323 a 1.3333262,1.3333262 0 1 1 -2.666652,0 V 12.772833 L 9.00535,11.823505 A 1.3333262,1.3333262 0 0 1 8.509352,10.004848 m -5.8426347,3.327983 a 1.3333262,1.3333262 0 0 1 1.3333262,1.333325 v 1.893324 l 1.6613243,0.949328 A 1.3333262,1.3333262 0 1 1 4.3387083,19.823463 L 2.0053875,18.490136 A 1.3333262,1.3333262 0 0 1 1.3333912,17.332809 v -2.666653 a 1.3333262,1.3333262 0 0 1 1.3333261,-1.333325 m 18.6665657,0 a 1.3333262,1.3333262 0 0 1 1.333326,1.333325 v 2.666653 a 1.3333262,1.3333262 0 0 1 -0.671996,1.157327 l -2.333321,1.333327 a 1.3333262,1.3333262 0 1 1 -1.32266,-2.314655 l 1.661325,-0.949328 v -1.893324 a 1.3333262,1.3333262 0 0 1 1.333326,-1.333325 M 8.509352,20.671458 a 1.3333262,1.3333262 0 0 1 1.818657,-0.495997 l 0.338665,0.193332 v -0.369331 a 1.3333262,1.3333262 0 1 1 2.666652,0 v 0.369331 l 0.338664,-0.193332 a 1.3333262,1.3333262 0 1 1 1.32266,2.314654 l -2.31332,1.32266 a 1.3333262,1.3333262 0 0 1 -1.36266,0 L 9.00535,22.490115 A 1.3333262,1.3333262 0 0 1 8.509352,20.671458"
     clip-rule="evenodd"
     id="path1"
     style="stroke-width:1.33333" />
</svg>
