<svg width="536" height="618" viewBox="0 0 536 618" fill="none" xmlns="http://www.w3.org/2000/svg">
<path d="M0.0151367 153.906L267.203 308.594V617.969L0.0151367 463.281" fill="#443322"/>
<path d="M59.4055 446.103V428.933L29.6873 411.728V428.897L44.5464 437.5L59.4055 446.103ZM44.5464 471.875L29.6873 463.272V480.442L44.5464 489.045V471.875ZM103.921 506.25V523.42L118.781 532.022V514.853L103.921 506.25ZM103.921 471.875V454.705L89.0623 446.103V463.272L103.921 471.875ZM252.359 557.813V574.982L267.218 583.585V566.415L252.359 557.813ZM252.359 523.438L267.218 532.04V514.87L252.359 506.268V523.438ZM192.984 489.062L178.125 480.46V497.63L192.984 506.232V489.062ZM207.843 428.915V411.745L178.125 394.54V411.71L192.984 420.312L207.843 428.915ZM44.5464 437.5L29.6873 428.897V463.272L44.5464 471.875L59.4055 480.478V446.103L44.5464 437.5ZM44.5464 471.875V489.045L103.921 523.42V506.25V489.08L44.5464 454.705V471.875ZM103.921 506.25L118.781 514.853V480.478L103.921 471.875L89.0623 463.272V497.647L103.921 506.25ZM103.921 471.875V489.045L252.359 574.982V557.813V540.643L103.921 454.705V471.875ZM252.359 557.813L267.218 566.415V532.04L252.359 523.438L237.5 514.835V549.21L252.359 557.813ZM252.359 523.438V506.268L192.984 471.893V489.062V506.232L252.359 540.607V523.438ZM192.984 489.062L207.843 497.665V428.915L192.984 420.312L178.125 411.71V480.46L192.984 489.062Z" fill="#886644"/>
<path d="M-0.000238653 411.71V428.88L29.718 446.085V428.915L14.8589 420.312L-0.000238653 411.71ZM14.8589 385.938V368.768L-0.000238653 360.165V377.335L14.8589 385.938ZM74.2339 420.313V437.482L89.093 446.085V428.915L74.2339 420.313ZM74.2339 385.938V368.768L59.3748 360.165V377.335L74.2339 385.938ZM103.921 420.295L118.781 428.897V394.558L103.921 385.955V403.125V420.295ZM133.609 506.268L118.75 497.665V532.005L133.609 540.607V523.438V506.268ZM192.984 557.813V574.982L207.843 583.585V566.415L192.984 557.813ZM192.984 523.438L207.843 532.04V514.87L192.984 506.268V523.438ZM163.296 506.25L148.437 497.647V514.817L163.296 523.42V506.25ZM178.156 377.353V360.183L148.437 342.978V360.147L163.296 368.75L178.156 377.353ZM192.984 437.518L178.125 428.915V463.255L192.984 471.857V454.688V437.518ZM222.671 471.875L237.531 480.478V463.308L222.671 454.705V471.875ZM207.812 497.647V514.817L237.531 532.022V514.853L222.671 506.25L207.812 497.647ZM267.218 428.915V411.745L237.5 394.54V411.71L252.359 420.313L267.218 428.915ZM237.5 446.085V463.255L267.218 480.46V463.29L252.359 454.688L237.5 446.085ZM14.8589 420.312L29.718 428.915V394.54L14.8589 385.938L-0.000238653 377.335V411.71L14.8589 420.312ZM14.8589 385.938V403.107L74.2339 437.482V420.313V403.143L14.8589 368.768V385.938ZM74.2339 420.313L89.093 428.915V394.54L74.2339 385.938L59.3748 377.335V411.71L74.2339 420.313ZM74.2339 385.938V403.107L103.921 420.295V403.125V385.955L74.2339 368.768V385.938ZM133.609 523.438V540.607L192.984 574.982V557.813V540.643L133.609 506.268V523.438ZM192.984 557.813L207.843 566.415V532.04L192.984 523.438L178.125 514.835V549.21L192.984 557.813ZM192.984 523.438V506.268L163.296 489.08V506.25V523.42L192.984 540.607V523.438ZM163.296 506.25L178.156 514.853V377.353L163.296 368.75L148.437 360.147V497.647L163.296 506.25ZM192.984 454.688V471.857L222.671 489.045V471.875V454.705L192.984 437.518V454.688ZM222.671 471.875L207.812 463.272V497.647L222.671 506.25L237.531 514.853V480.478L222.671 471.875ZM252.359 420.313L237.5 411.71V446.085L252.359 454.688L267.218 463.29V428.915L252.359 420.313Z" fill="#664433"/>
<path d="M14.8589 368.768L-0.000238653 360.165V394.505L14.8589 403.107V385.938V368.768ZM44.5464 420.295L59.4055 428.897V394.558L44.5464 385.955V403.125V420.295ZM103.921 420.33L89.0623 411.728V446.067L103.921 454.67V437.5V420.33ZM133.609 471.857L148.468 480.46V446.12L133.609 437.518V454.688V471.857ZM14.8589 385.938V403.107L44.5464 420.295V403.125V385.955L14.8589 368.768V385.938ZM103.921 437.5V454.67L133.609 471.857V454.688V437.518L103.921 420.33V437.5Z" fill="#AA7755"/>
<path d="M89.0623 325.772V342.942L118.781 360.147V342.978L103.921 334.375L89.0623 325.772ZM103.921 231.25V214.08L89.0623 205.478V222.647L103.921 231.25ZM222.671 300L237.531 308.603V291.433L222.671 282.83V300ZM222.671 368.75V385.92L237.531 394.522V377.353L222.671 368.75ZM192.984 351.563L178.125 342.96V360.13L192.984 368.732V351.563ZM192.984 317.188L207.843 325.79V308.62L192.984 300.018V317.188ZM103.921 265.625V248.455L89.0623 239.853V257.022L103.921 265.625ZM103.921 300V317.17L118.781 325.772V308.603L103.921 300ZM44.5464 265.625V248.455L29.6873 239.853V257.022L44.5464 265.625ZM29.6873 291.397V308.567L59.4055 325.772V308.603L44.5464 300L29.6873 291.397ZM103.921 334.375L118.781 342.978V239.853L103.921 231.25L89.0623 222.647V325.772L103.921 334.375ZM103.921 231.25V248.42L222.671 317.17V300V282.83L103.921 214.08V231.25ZM222.671 300L207.812 291.397V360.147L222.671 368.75L237.531 377.353V308.603L222.671 300ZM222.671 368.75V351.58L192.984 334.393V351.563V368.732L222.671 385.92V368.75ZM192.984 351.563L207.843 360.165V325.79L192.984 317.188L178.125 308.585V342.96L192.984 351.563ZM192.984 317.188V300.018L103.921 248.455V265.625V282.795L192.984 334.357V317.188ZM103.921 265.625L89.0623 257.022V291.397L103.921 300L118.781 308.603V274.228L103.921 265.625ZM103.921 300V282.83L44.5464 248.455V265.625V282.795L103.921 317.17V300ZM44.5464 265.625L29.6873 257.022V291.397L44.5464 300L59.4055 308.603V274.228L44.5464 265.625Z" fill="#559933"/>
<path d="M44.5464 179.705L29.6873 171.103V205.442L44.5464 214.045V196.875V179.705ZM74.2339 231.232L89.093 239.835V205.495L74.2339 196.893V214.062V231.232ZM267.218 325.79V308.62L237.5 291.415V308.585L252.359 317.188L267.218 325.79ZM237.5 342.96V360.13L267.218 377.335V360.165L252.359 351.563L237.5 342.96ZM44.5464 196.875V214.045L74.2339 231.232V214.062V196.893L44.5464 179.705V196.875ZM252.359 317.188L237.5 308.585V342.96L252.359 351.563L267.218 360.165V325.79L252.359 317.188Z" fill="#66AA44"/>
<path d="M74.2339 231.268L59.3748 222.665V257.005L74.2339 265.607V248.438V231.268ZM103.921 282.795L118.781 291.397V257.058L103.921 248.455V265.625V282.795ZM74.2339 248.438V265.607L103.921 282.795V265.625V248.455L74.2339 231.268V248.438Z" fill="#77CC55"/>
<path d="M29.718 188.29V171.12L-0.000238653 153.915V171.085L14.8589 179.688L29.718 188.29ZM14.8589 214.062L-0.000238653 205.46V222.63L14.8589 231.232V214.062ZM44.5464 248.42L59.4055 257.022V222.683L44.5464 214.08V231.25V248.42ZM14.8589 179.688L-0.000238653 171.085V205.46L14.8589 214.062L29.718 222.665V188.29L14.8589 179.688ZM14.8589 214.062V231.232L44.5464 248.42V231.25V214.08L14.8589 196.893V214.062Z" fill="#99CC66"/>
<path d="M534.39 153.906L267.203 308.594V617.969L534.39 463.281" fill="#443322"/>
<path d="M475 446.103V428.933L504.718 411.728V428.897L489.859 437.5L475 446.103ZM489.859 471.875L504.718 463.272V480.442L489.859 489.045V471.875ZM430.484 506.25V523.42L415.625 532.022V514.853L430.484 506.25ZM430.484 471.875V454.705L445.343 446.103V463.272L430.484 471.875ZM282.046 557.813V574.982L267.187 583.585V566.415L282.046 557.813ZM282.046 523.438L267.187 532.04V514.87L282.046 506.268V523.438ZM341.421 489.062L356.281 480.46V497.63L341.421 506.232V489.062ZM326.562 428.915V411.745L356.281 394.54V411.71L341.421 420.312L326.562 428.915ZM489.859 437.5L504.718 428.897V463.272L489.859 471.875L475 480.478V446.103L489.859 437.5ZM489.859 471.875V489.045L430.484 523.42V506.25V489.08L489.859 454.705V471.875ZM430.484 506.25L415.625 514.853V480.478L430.484 471.875L445.343 463.272V497.647L430.484 506.25ZM430.484 471.875V489.045L282.046 574.982V557.813V540.643L430.484 454.705V471.875ZM282.046 557.813L267.187 566.415V532.04L282.046 523.438L296.906 514.835V549.21L282.046 557.813ZM282.046 523.438V506.268L341.421 471.893V489.062V506.232L282.046 540.607V523.438ZM341.421 489.062L326.562 497.665V428.915L341.421 420.312L356.281 411.71V480.46L341.421 489.062Z" fill="#886644"/>
<path d="M534.406 411.71V428.88L504.687 446.085V428.915L519.546 420.312L534.406 411.71ZM519.546 385.938V368.768L534.406 360.165V377.335L519.546 385.938ZM460.171 420.313V437.482L445.312 446.085V428.915L460.171 420.313ZM460.171 385.938V368.768L475.031 360.165V377.335L460.171 385.938ZM430.484 420.295L415.625 428.897V394.558L430.484 385.955V403.125V420.295ZM400.796 506.268L415.656 497.665V532.005L400.796 540.607V523.438V506.268ZM341.421 557.813V574.982L326.562 583.585V566.415L341.421 557.813ZM341.421 523.438L326.562 532.04V514.87L341.421 506.268V523.438ZM371.109 506.25L385.968 497.647V514.817L371.109 523.42V506.25ZM356.25 377.353V360.183L385.968 342.978V360.147L371.109 368.75L356.25 377.353ZM341.421 437.518L356.28 428.915V463.255L341.421 471.857V454.688V437.518ZM311.734 471.875L296.875 480.478V463.308L311.734 454.705V471.875ZM326.593 497.647V514.817L296.875 532.022V514.853L311.734 506.25L326.593 497.647ZM267.187 428.915V411.745L296.905 394.54V411.71L282.046 420.313L267.187 428.915ZM296.905 446.085V463.255L267.187 480.46V463.29L282.046 454.688L296.905 446.085ZM519.546 420.312L504.687 428.915V394.54L519.546 385.938L534.406 377.335V411.71L519.546 420.312ZM519.546 385.938V403.107L460.171 437.482V420.313V403.143L519.546 368.768V385.938ZM460.171 420.313L445.312 428.915V394.54L460.171 385.938L475.031 377.335V411.71L460.171 420.313ZM460.171 385.938V403.107L430.484 420.295V403.125V385.955L460.171 368.768V385.938ZM400.796 523.438V540.607L341.421 574.982V557.813V540.643L400.796 506.268V523.438ZM341.421 557.813L326.562 566.415V532.04L341.421 523.438L356.28 514.835V549.21L341.421 557.813ZM341.421 523.438V506.268L371.109 489.08V506.25V523.42L341.421 540.607V523.438ZM371.109 506.25L356.25 514.853V377.353L371.109 368.75L385.968 360.147V497.647L371.109 506.25ZM341.421 454.688V471.857L311.734 489.045V471.875V454.705L341.421 437.518V454.688ZM311.734 471.875L326.593 463.272V497.647L311.734 506.25L296.875 514.853V480.478L311.734 471.875ZM282.046 420.313L296.905 411.71V446.085L282.046 454.688L267.187 463.29V428.915L282.046 420.313Z" fill="#664433"/>
<path d="M519.546 368.768L534.406 360.165V394.505L519.546 403.107V385.938V368.768ZM489.859 420.295L475 428.897V394.558L489.859 385.955V403.125V420.295ZM430.484 420.33L445.343 411.728V446.067L430.484 454.67V437.5V420.33ZM400.796 471.857L385.937 480.46V446.12L400.796 437.518V454.688V471.857ZM519.546 385.938V403.107L489.859 420.295V403.125V385.955L519.546 368.768V385.938ZM430.484 437.5V454.67L400.796 471.857V454.688V437.518L430.484 420.33V437.5Z" fill="#AA7755"/>
<path d="M445.343 325.772V342.942L415.625 360.147V342.978L430.484 334.375L445.343 325.772ZM430.484 231.25V214.08L445.343 205.478V222.647L430.484 231.25ZM311.734 300L296.875 308.603V291.433L311.734 282.83V300ZM311.734 368.75V385.92L296.875 394.522V377.353L311.734 368.75ZM341.421 351.563L356.281 342.96V360.13L341.421 368.732V351.563ZM341.421 317.188L326.562 325.79V308.62L341.421 300.018V317.188ZM430.484 265.625V248.455L445.343 239.853V257.022L430.484 265.625ZM430.484 300V317.17L415.625 325.772V308.603L430.484 300ZM489.859 265.625V248.455L504.718 239.853V257.022L489.859 265.625ZM504.718 291.397V308.567L475 325.772V308.603L489.859 300L504.718 291.397ZM430.484 334.375L415.625 342.978V239.853L430.484 231.25L445.343 222.647V325.772L430.484 334.375ZM430.484 231.25V248.42L311.734 317.17V300V282.83L430.484 214.08V231.25ZM311.734 300L326.593 291.397V360.147L311.734 368.75L296.875 377.353V308.603L311.734 300ZM311.734 368.75V351.58L341.421 334.393V351.563V368.732L311.734 385.92V368.75ZM341.421 351.563L326.562 360.165V325.79L341.421 317.188L356.281 308.585V342.96L341.421 351.563ZM341.421 317.188V300.018L430.484 248.455V265.625V282.795L341.421 334.357V317.188ZM430.484 265.625L445.343 257.022V291.397L430.484 300L415.625 308.603V274.228L430.484 265.625ZM430.484 300V282.83L489.859 248.455V265.625V282.795L430.484 317.17V300ZM489.859 265.625L504.718 257.022V291.397L489.859 300L475 308.603V274.228L489.859 265.625Z" fill="#559933"/>
<path d="M489.859 179.705L504.718 171.103V205.442L489.859 214.045V196.875V179.705ZM460.171 231.232L445.312 239.835V205.495L460.171 196.893V214.062V231.232ZM267.187 325.79V308.62L296.906 291.415V308.585L282.046 317.188L267.187 325.79ZM296.906 342.96V360.13L267.187 377.335V360.165L282.046 351.563L296.906 342.96ZM489.859 196.875V214.045L460.171 231.232V214.062V196.893L489.859 179.705V196.875ZM282.046 317.188L296.906 308.585V342.96L282.046 351.563L267.187 360.165V325.79L282.046 317.188Z" fill="#66AA44"/>
<path d="M460.171 231.268L475.031 222.665V257.005L460.171 265.607V248.438V231.268ZM430.484 282.795L415.625 291.397V257.058L430.484 248.455V265.625V282.795ZM460.171 248.438V265.607L430.484 282.795V265.625V248.455L460.171 231.268V248.438Z" fill="#77CC55"/>
<path d="M504.687 188.29V171.12L534.406 153.915V171.085L519.546 179.688L504.687 188.29ZM519.546 214.062L534.406 205.46V222.63L519.546 231.232V214.062ZM489.859 248.42L475 257.022V222.683L489.859 214.08V231.25V248.42ZM519.546 179.688L534.406 171.085V205.46L519.546 214.062L504.687 222.665V188.29L519.546 179.688ZM519.546 214.062V231.232L489.859 248.42V231.25V214.08L519.546 196.893V214.062Z" fill="#99CC66"/>
<path d="M535.171 154.688L267.984 309.375L0.796349 154.688L267.984 -1.27141e-05" fill="#77BB44"/>
<path d="M342.203 146.094L357.046 154.688L386.734 137.5L371.89 128.906L357.046 137.5L342.203 146.094ZM297.671 103.125L282.828 94.5312L267.984 103.125L282.828 111.719L297.671 103.125ZM357.046 68.75L371.89 77.3438L386.734 68.75L371.89 60.1563L357.046 68.75ZM297.671 34.375L312.515 25.7812L297.671 17.1875L282.828 25.7813L297.671 34.375ZM208.609 85.9375L193.765 94.5312L208.609 103.125L223.453 94.5313L208.609 85.9375ZM178.921 68.75L193.765 60.1563L178.921 51.5625L164.078 60.1563L178.921 68.75ZM119.546 103.125L104.703 94.5312L89.8589 103.125L104.703 111.719L119.546 103.125ZM164.078 146.094L178.921 154.688L208.609 137.5L193.765 128.906L178.921 137.5L164.078 146.094ZM431.265 146.094L446.109 137.5L416.421 120.313L401.578 128.906L416.421 137.5L431.265 146.094ZM297.671 206.25L282.828 197.656L267.984 206.25L282.828 214.844L297.671 206.25ZM357.046 240.625L342.203 249.219L357.046 257.812L371.89 249.219L357.046 240.625ZM386.734 223.437L401.578 232.031L416.421 223.437L401.578 214.844L386.734 223.437ZM357.046 206.25L371.89 197.656L357.046 189.063L342.203 197.656L357.046 206.25ZM253.14 249.219L238.296 257.812L267.984 275L282.828 266.406L267.984 257.813L253.14 249.219ZM223.453 214.844L238.296 223.437L267.984 206.25L253.14 197.656L238.296 206.25L223.453 214.844ZM208.609 189.062L193.765 180.469L178.921 189.062L193.765 197.656L208.609 189.062ZM312.515 146.094L327.359 137.5L297.671 120.313L282.828 128.906L297.671 137.5L312.515 146.094ZM164.078 249.219L178.921 257.812L208.609 240.625L193.765 232.031L178.921 240.625L164.078 249.219ZM119.546 206.25L104.703 197.656L89.8589 206.25L104.703 214.844L119.546 206.25ZM149.234 189.063L164.078 197.656L178.921 189.062L164.078 180.469L149.234 189.063ZM75.0152 128.906L60.1714 120.313L30.4839 137.5L45.3277 146.094L60.1714 137.5L75.0152 128.906ZM357.046 137.5L371.89 128.906L312.515 94.5313L297.671 103.125L282.828 111.719L342.203 146.094L357.046 137.5ZM297.671 103.125L312.515 111.719L371.89 77.3438L357.046 68.75L342.203 60.1563L282.828 94.5312L297.671 103.125ZM357.046 68.75L371.89 60.1563L312.515 25.7812L297.671 34.375L282.828 42.9687L342.203 77.3438L357.046 68.75ZM297.671 34.375L282.828 25.7813L193.765 77.3438L208.609 85.9375L223.453 94.5313L312.515 42.9688L297.671 34.375ZM208.609 85.9375L223.453 77.3437L193.765 60.1563L178.921 68.75L164.078 77.3438L193.765 94.5312L208.609 85.9375ZM178.921 68.75L164.078 60.1563L104.703 94.5312L119.546 103.125L134.39 111.719L193.765 77.3438L178.921 68.75ZM119.546 103.125L104.703 111.719L164.078 146.094L178.921 137.5L193.765 128.906L134.39 94.5312L119.546 103.125ZM416.421 137.5L401.578 128.906L282.828 197.656L297.671 206.25L312.515 214.844L431.265 146.094L416.421 137.5ZM297.671 206.25L282.828 214.844L342.203 249.219L357.046 240.625L371.89 232.031L312.515 197.656L297.671 206.25ZM357.046 240.625L371.89 249.219L401.578 232.031L386.734 223.437L371.89 214.844L342.203 232.031L357.046 240.625ZM386.734 223.437L401.578 214.844L371.89 197.656L357.046 206.25L342.203 214.844L371.89 232.031L386.734 223.437ZM357.046 206.25L342.203 197.656L253.14 249.219L267.984 257.813L282.828 266.406L371.89 214.844L357.046 206.25ZM238.296 206.25L253.14 197.656L223.453 180.469L208.609 189.062L193.765 197.656L223.453 214.844L238.296 206.25ZM208.609 189.062L223.453 197.656L312.515 146.094L297.671 137.5L282.828 128.906L193.765 180.469L208.609 189.062ZM178.921 240.625L193.765 232.031L134.39 197.656L119.546 206.25L104.703 214.844L164.078 249.219L178.921 240.625ZM119.546 206.25L134.39 214.844L164.078 197.656L149.234 189.063L134.39 180.469L104.703 197.656L119.546 206.25ZM149.234 189.063L164.078 180.469L75.0152 128.906L60.1714 137.5L45.3277 146.094L134.39 197.656L149.234 189.063Z" fill="#88CC55"/>
<path d="M431.265 128.906L446.109 137.5L475.796 120.313L460.953 111.719L446.109 120.313L431.265 128.906ZM401.578 77.3438L386.734 68.75L357.046 85.9375L371.89 94.5313L386.734 85.9375L401.578 77.3438ZM253.14 163.281L267.984 171.875L297.671 154.688L282.828 146.094L267.984 154.687L253.14 163.281ZM253.14 128.906L238.296 120.313L208.609 137.5L223.453 146.094L238.296 137.5L253.14 128.906ZM164.078 111.719L178.921 120.312L208.609 103.125L193.765 94.5313L178.921 103.125L164.078 111.719ZM164.078 77.3437L149.234 68.75L119.546 85.9375L134.39 94.5312L149.234 85.9375L164.078 77.3437ZM282.828 249.219L297.671 257.812L327.359 240.625L312.515 232.031L297.671 240.625L282.828 249.219ZM282.828 214.844L267.984 206.25L238.296 223.437L253.14 232.031L267.984 223.437L282.828 214.844ZM134.39 180.469L149.234 171.875L119.546 154.687L104.703 163.281L119.546 171.875L134.39 180.469ZM75.0152 180.469L60.1714 189.062L89.8589 206.25L104.703 197.656L89.8589 189.063L75.0152 180.469ZM446.109 120.313L460.953 111.719L401.578 77.3438L386.734 85.9375L371.89 94.5313L431.265 128.906L446.109 120.313ZM267.984 154.687L282.828 146.094L253.14 128.906L238.296 137.5L223.453 146.094L253.14 163.281L267.984 154.687ZM178.921 103.125L193.765 94.5313L164.078 77.3437L149.234 85.9375L134.39 94.5312L164.078 111.719L178.921 103.125ZM297.671 240.625L312.515 232.031L282.828 214.844L267.984 223.437L253.14 232.031L282.828 249.219L297.671 240.625ZM119.546 171.875L104.703 163.281L75.0152 180.469L89.8589 189.063L104.703 197.656L134.39 180.469L119.546 171.875Z" fill="#AADD77"/>
</svg>
